<svg width="288" height="288" viewBox="0 0 288 288" fill="none" xmlns="http://www.w3.org/2000/svg">
<path d="M287.424 92.4316H246.809V126.718H287.424V92.4316Z" fill="#8F43EE"/>
<path d="M287.408 196.055H246.84C246.84 179.76 230.845 166.548 211.118 166.548V166.587H186.169V195.964H144.66V92.0948H186.169V133.039H211.118C253.254 133.039 287.408 161.25 287.408 196.055Z" fill="#8F43EE"/>
<path d="M139.312 92.1597V196.029H101.583V166.484H76.6332C56.9059 166.484 40.9108 179.709 40.9108 196.003H0.358398C0.358398 177.714 9.78298 161.251 24.8529 149.735C9.78298 138.22 0.358398 121.757 0.358398 103.468V92.1597H40.9264V103.468C40.9264 119.762 56.9216 132.974 76.6489 132.974V132.936H101.598V92.1597H139.328H139.312Z" fill="#8F43EE"/>
</svg>
